<svg width="17" height="13" viewBox="0 0 17 13" fill="none" xmlns="http://www.w3.org/2000/svg">
<path d="M0.20361 4.65785L7.84257 12.2968C8.11409 12.5684 8.55299 12.5684 8.82451 12.2968L16.4635 4.65786C16.5941 4.528 16.667 4.3516 16.667 4.16687L16.667 0.694591C16.667 0.414021 16.4982 0.15985 16.2385 0.0529155C15.9788 -0.0547352 15.6802 0.00499812 15.4816 0.203601L8.33356 7.35164L1.18556 0.203632C1.0529 0.0709806 0.875136 0.000146439 0.694567 0.000146423C0.604983 0.000146415 0.514714 0.0168138 0.42858 0.0529142C0.168843 0.159849 9.26094e-05 0.414019 9.25848e-05 0.694589L9.22813e-05 4.16686C0.00012469 4.3516 0.0730426 4.528 0.20361 4.65785Z" fill="black"/>
</svg>
