<svg width="24" height="24" viewBox="0 0 24 24" fill="none" xmlns="http://www.w3.org/2000/svg">
<path d="M12.2693 23.3077C18.7056 23.3077 23.9232 18.0901 23.9232 11.6538C23.9232 5.2176 18.7056 0 12.2693 0C5.83308 0 0.615479 5.2176 0.615479 11.6538C0.615479 18.0901 5.83308 23.3077 12.2693 23.3077Z" fill="#59BDFF"/>
<path d="M12.2692 5.8269C10.6873 5.8269 10.4893 5.83373 9.8679 5.86105C9.24651 5.89064 8.82542 5.98851 8.45441 6.13191C8.07202 6.27986 7.74653 6.48016 7.42104 6.80337C7.09556 7.12658 6.89753 7.45207 6.74958 7.83674C6.60619 8.20775 6.50831 8.63111 6.47872 9.25022C6.44913 9.87161 6.44458 10.0696 6.44458 11.6516C6.44458 13.2335 6.45141 13.4315 6.47872 14.0529C6.50831 14.672 6.60619 15.0954 6.74958 15.4664C6.89753 15.8488 7.09783 16.1742 7.42104 16.4997C7.74426 16.8229 8.06975 17.0232 8.45441 17.1712C8.82542 17.3146 9.24879 17.4125 9.8679 17.4421C10.4893 17.4716 10.6873 17.4762 12.2692 17.4762C13.8511 17.4762 14.0492 17.4694 14.6706 17.4421C15.2897 17.4125 15.713 17.3146 16.084 17.1712C16.4664 17.0232 16.7919 16.8229 17.1174 16.4997C17.4406 16.1765 17.6409 15.851 17.7889 15.4664C17.9323 15.0954 18.0301 14.672 18.0597 14.0529C18.0893 13.4315 18.0939 13.2335 18.0939 11.6516C18.0939 10.0696 18.087 9.87161 18.0597 9.25022C18.0301 8.63111 17.9323 8.20775 17.7889 7.83674C17.6409 7.45435 17.4406 7.12886 17.1174 6.80337C16.7942 6.48016 16.4687 6.27986 16.084 6.13191C15.713 5.98851 15.2897 5.89064 14.6706 5.86105C14.0492 5.83373 13.8511 5.8269 12.2692 5.8269ZM12.2692 6.87621C13.8238 6.87621 14.0105 6.88303 14.625 6.91035C15.1941 6.93766 15.5013 7.03098 15.7062 7.11292C15.9793 7.21763 16.1728 7.34509 16.3777 7.54767C16.5802 7.75252 16.7077 7.94599 16.8124 8.21913C16.8921 8.42398 16.9877 8.73126 17.0127 9.3003C17.04 9.91486 17.0468 10.0992 17.0468 11.6561C17.0468 13.213 17.04 13.3974 17.0104 14.0119C16.9808 14.5809 16.8852 14.8882 16.8056 15.0931C16.6963 15.3662 16.5734 15.5597 16.3686 15.7645C16.166 15.9671 15.968 16.0946 15.6994 16.1993C15.4945 16.2789 15.1827 16.3745 14.6137 16.3996C13.9945 16.4269 13.8125 16.4337 12.2533 16.4337C10.6941 16.4337 10.512 16.4269 9.89294 16.3973C9.3239 16.3677 9.01207 16.2721 8.80722 16.1925C8.5318 16.0832 8.34061 15.9603 8.13803 15.7554C7.93318 15.5529 7.80344 15.3548 7.70101 15.0862C7.62135 14.8814 7.52575 14.5696 7.49616 14.0005C7.4734 13.3882 7.46657 13.1993 7.46657 11.6493C7.46657 10.0969 7.4734 9.90803 7.49616 9.28892C7.52575 8.71988 7.61907 8.40805 7.70101 8.2032C7.80344 7.92551 7.93318 7.73659 8.13803 7.53173C8.34061 7.32916 8.5318 7.19714 8.80722 7.09472C9.01207 7.01505 9.31707 6.91945 9.88611 6.88986C10.5052 6.8671 10.6873 6.86027 12.2465 6.86027L12.2692 6.87621ZM12.2692 8.6607C10.6167 8.6607 9.2761 10.0013 9.2761 11.6538C9.2761 13.3063 10.6167 14.647 12.2692 14.647C13.9217 14.647 15.2624 13.3063 15.2624 11.6538C15.2624 10.0013 13.9217 8.6607 12.2692 8.6607ZM12.2692 13.5954C11.1972 13.5954 10.3277 12.7259 10.3277 11.6538C10.3277 10.5818 11.1972 9.71228 12.2692 9.71228C13.3413 9.71228 14.2108 10.5818 14.2108 11.6538C14.2108 12.7259 13.3413 13.5954 12.2692 13.5954ZM16.0795 8.54462C16.0795 8.93156 15.7654 9.24339 15.3807 9.24339C14.9938 9.24339 14.6819 8.92929 14.6819 8.54462C14.6819 8.15995 14.996 7.84584 15.3807 7.84584C15.7654 7.84357 16.0795 8.15767 16.0795 8.54462Z" fill="white"/>
</svg>
