<svg width="15" height="15" viewBox="0 0 15 15" fill="none" xmlns="http://www.w3.org/2000/svg">
<rect width="15" height="15" rx="7.5" fill="#59BDFF"/>
<path fill-rule="evenodd" clip-rule="evenodd" d="M7.44546 9.37945C8.5137 9.37945 9.37969 8.51346 9.37969 7.44522C9.37969 6.37697 8.5137 5.51099 7.44546 5.51099C6.37721 5.51099 5.51123 6.37697 5.51123 7.44522C5.51123 8.51346 6.37721 9.37945 7.44546 9.37945ZM7.44546 8.7347C8.15761 8.7347 8.73495 8.15737 8.73495 7.44522C8.73495 6.73305 8.15761 6.15573 7.44546 6.15573C6.7333 6.15573 6.15597 6.73305 6.15597 7.44522C6.15597 8.15737 6.7333 8.7347 7.44546 8.7347Z" fill="white"/>
<path d="M9.3795 5.18872C9.20145 5.18872 9.05713 5.33305 9.05713 5.51109C9.05713 5.68913 9.20145 5.83346 9.3795 5.83346C9.55755 5.83346 9.70187 5.68913 9.70187 5.51109C9.70187 5.33305 9.55755 5.18872 9.3795 5.18872Z" fill="white"/>
<path fill-rule="evenodd" clip-rule="evenodd" d="M4.11023 4.95552C3.89941 5.36928 3.89941 5.91091 3.89941 6.99418V7.89682C3.89941 8.98009 3.89941 9.52174 4.11023 9.93547C4.29567 10.2994 4.59157 10.5953 4.95552 10.7808C5.36928 10.9916 5.91091 10.9916 6.99418 10.9916H7.89682C8.98009 10.9916 9.52174 10.9916 9.93547 10.7808C10.2994 10.5953 10.5953 10.2994 10.7808 9.93547C10.9916 9.52174 10.9916 8.98009 10.9916 7.89682V6.99418C10.9916 5.91091 10.9916 5.36928 10.7808 4.95552C10.5953 4.59157 10.2994 4.29567 9.93547 4.11023C9.52174 3.89941 8.98009 3.89941 7.89682 3.89941H6.99418C5.91091 3.89941 5.36928 3.89941 4.95552 4.11023C4.59157 4.29567 4.29567 4.59157 4.11023 4.95552ZM7.89682 4.54416H6.99418C6.44191 4.54416 6.06648 4.54466 5.77629 4.56837C5.49362 4.59146 5.34907 4.63332 5.24823 4.6847C5.0056 4.80833 4.80833 5.0056 4.6847 5.24823C4.63332 5.34907 4.59146 5.49362 4.56837 5.77629C4.54466 6.06648 4.54416 6.44191 4.54416 6.99418V7.89682C4.54416 8.44911 4.54466 8.82451 4.56837 9.11471C4.59146 9.3974 4.63332 9.54195 4.6847 9.64279C4.80833 9.8854 5.0056 10.0827 5.24823 10.2063C5.34907 10.2577 5.49362 10.2996 5.77629 10.3226C6.06648 10.3463 6.44191 10.3468 6.99418 10.3468H7.89682C8.44911 10.3468 8.82451 10.3463 9.11471 10.3226C9.3974 10.2996 9.54195 10.2577 9.64279 10.2063C9.8854 10.0827 10.0827 9.8854 10.2063 9.64279C10.2577 9.54195 10.2996 9.3974 10.3226 9.11471C10.3463 8.82451 10.3468 8.44911 10.3468 7.89682V6.99418C10.3468 6.44191 10.3463 6.06648 10.3226 5.77629C10.2996 5.49362 10.2577 5.34907 10.2063 5.24823C10.0827 5.0056 9.8854 4.80833 9.64279 4.6847C9.54195 4.63332 9.3974 4.59146 9.11471 4.56837C8.82451 4.54466 8.44911 4.54416 7.89682 4.54416Z" fill="white"/>
</svg>
