<svg width="33" height="32" viewBox="0 0 33 32" fill="none" xmlns="http://www.w3.org/2000/svg">
<mask id="mask0_97_505" style="mask-type:luminance" maskUnits="userSpaceOnUse" x="3" y="3" width="27" height="26">
<path d="M13.3148 28.3187C20.1547 30.2787 27.2885 26.3227 29.2486 19.4828C31.2086 12.6428 27.2527 5.509 20.4127 3.54896C13.5727 1.58892 6.43891 5.54489 4.47887 12.3849C2.51883 19.2248 6.4748 26.3586 13.3148 28.3187Z" fill="white"/>
</mask>
<g mask="url(#mask0_97_505)">
<path d="M13.3148 28.3187C20.1547 30.2787 27.2885 26.3227 29.2486 19.4828C31.2086 12.6428 27.2527 5.509 20.4127 3.54896C13.5727 1.58892 6.43891 5.54489 4.47887 12.3849C2.51883 19.2248 6.4748 26.3586 13.3148 28.3187Z" fill="#316EAC"/>
<path fill-rule="evenodd" clip-rule="evenodd" d="M3.9167 27.5211C3.78629 27.4837 3.67588 27.3965 3.6094 27.2782C3.54293 27.16 3.52577 27.0203 3.56163 26.8894L3.90816 25.6231L2.66398 25.2666C2.53259 25.2289 2.42154 25.1406 2.35526 25.0211C2.28898 24.9016 2.27289 24.7606 2.31054 24.6292L3.73013 19.6753C3.75305 19.5953 3.79502 19.5218 3.85272 19.4617L8.06795 15.0408C8.1293 14.9764 8.20607 14.9292 8.29093 14.9034L13.0991 13.4411L16.4339 8.15547C16.4863 8.07247 16.5613 8.00615 16.65 7.9643C16.7388 7.92246 16.8377 7.90683 16.935 7.91926L17.0117 7.93507C17.0933 7.95846 17.1678 8.00162 17.2287 8.06072C17.2895 8.11983 17.3349 8.19304 17.3606 8.27388L18.1544 10.7606L19.3528 11.5819C19.454 11.6514 19.5275 11.755 19.5591 11.874L21.3669 18.6333L23.772 17.99C23.8951 17.9569 24.0262 17.9706 24.1398 18.0286C24.2533 18.0866 24.3413 18.1847 24.3867 18.3039L26.2234 23.1188C26.2361 23.152 26.2453 23.1865 26.251 23.2216L26.9202 27.434C26.9386 27.5501 26.9167 27.669 26.8583 27.771C26.7999 27.873 26.7084 27.9519 26.5989 27.9948L17.8698 31.4096C17.7645 31.4507 17.6488 31.4561 17.54 31.425L3.9167 27.5211Z" fill="white"/>
<path fill-rule="evenodd" clip-rule="evenodd" d="M17.682 30.9298L4.05867 27.0259L4.5399 25.268L2.80602 24.7711L4.2256 19.8172L8.44084 15.3963L13.4325 13.8783L16.8698 8.43044L17.7172 11.0856L19.0614 12.0069L21.0024 19.264L23.9053 18.4876L25.742 23.3025L26.4111 27.5148L17.682 30.9298Z" fill="white"/>
<path fill-rule="evenodd" clip-rule="evenodd" d="M2.34384 27.3191C2.21245 27.2814 2.1014 27.1931 2.03512 27.0736C1.96884 26.9541 1.95275 26.8131 1.9904 26.6817L4.11978 19.2508C4.1418 19.1739 4.18144 19.1031 4.23557 19.0441L8.13212 14.8C8.19437 14.7321 8.27374 14.6823 8.3619 14.6557L13.1562 13.1977L16.3153 7.61058C16.3723 7.50977 16.4615 7.43107 16.5687 7.38718C16.6758 7.34329 16.7947 7.33677 16.906 7.36867L16.9156 7.37144C17.0279 7.40593 17.125 7.47773 17.1909 7.57494C17.2567 7.67215 17.2874 7.78894 17.2779 7.90598L16.9563 11.8344C16.9518 11.8856 16.9401 11.9356 16.9211 11.9832L15.9636 14.3892C15.9477 14.429 15.927 14.4666 15.9018 14.5012L14.1302 16.942L11.9829 19.9366L11.6729 23.7225C11.6655 23.812 11.6349 23.8979 11.5845 23.9719L9.78943 26.5911L9.17362 28.7401C9.13597 28.8715 9.04767 28.9826 8.92814 29.0489C8.80861 29.1151 8.66765 29.1312 8.53626 29.0936L2.34384 27.3191ZM19.7227 25.5982C19.6393 25.5743 19.5608 25.529 19.4963 25.4626L18.0463 23.9749C17.965 23.8915 17.9144 23.7831 17.9026 23.6672C17.8908 23.5514 17.9186 23.4349 17.9815 23.3369L20.8872 18.8088C20.9599 18.6956 21.0737 18.6154 21.2044 18.585L23.7885 17.9854C23.876 17.9654 23.9672 17.9685 24.0532 17.9943C24.1391 18.0201 24.2169 18.0677 24.2789 18.1326C24.4045 18.2651 24.4509 18.4539 24.4006 18.6295L23.1939 22.8404C23.1659 22.9382 23.1095 23.0255 23.032 23.0912L20.1986 25.4958C20.1339 25.5507 20.0566 25.5889 19.9736 25.6067C19.8905 25.6246 19.8044 25.6217 19.7227 25.5982Z" fill="#6BC8F2"/>
<path fill-rule="evenodd" clip-rule="evenodd" d="M21.3211 19.0872L18.4153 23.6153L19.8653 25.1029L22.6986 22.6984L23.9052 18.4876L21.3211 19.0872ZM13.5034 13.6306L8.51181 15.1486L4.61525 19.3928L2.48587 26.8237L8.6783 28.5982L9.31712 26.3689L11.1597 23.6804L11.4813 19.752L13.7134 16.6392L15.485 14.1984L16.4425 11.7924L16.7641 7.86404L13.5034 13.6306Z" fill="#6BC8F2"/>
<path opacity="0.2" d="M24.7765 13.1086C24.9817 13.1674 25.1957 13.0487 25.2545 12.8435C25.3133 12.6383 25.1947 12.4243 24.9895 12.3655C24.7843 12.3067 24.5703 12.4254 24.5115 12.6306C24.4526 12.8358 24.5713 13.0498 24.7765 13.1086Z" fill="white"/>
<path opacity="0.1" d="M8.63859 11.4326C8.84379 11.4914 9.0578 11.3727 9.1166 11.1675C9.1754 10.9623 9.05673 10.7483 8.85153 10.6895C8.64633 10.6307 8.43231 10.7494 8.37351 10.9546C8.31471 11.1598 8.43339 11.3738 8.63859 11.4326Z" fill="white"/>
<path opacity="0.43" d="M20.8163 8.22114C21.0215 8.27994 21.2355 8.16126 21.2943 7.95607C21.3531 7.75087 21.2345 7.53685 21.0293 7.47805C20.8241 7.41925 20.61 7.53793 20.5512 7.74313C20.4924 7.94833 20.6111 8.16234 20.8163 8.22114Z" fill="white"/>
</g>
</svg>
