<svg width="24" height="24" viewBox="0 0 24 24" fill="none" xmlns="http://www.w3.org/2000/svg">
<path d="M11.9615 0C5.52517 0 0.307617 5.21755 0.307617 11.6538C0.307617 18.0901 5.52517 23.3077 11.9615 23.3077C18.3978 23.3077 23.6153 18.0901 23.6153 11.6538C23.6153 5.21755 18.3978 0 11.9615 0Z" fill="#59BDFF"/>
<path d="M17.4 5.879L15.434 17.3518C15.434 17.3518 15.159 18.1474 14.4029 17.7655L9.86592 13.7396L8.21617 12.8168L5.43903 11.7347C5.43903 11.7347 5.01283 11.5597 4.97155 11.1778C4.93036 10.7959 5.45278 10.5891 5.45278 10.5891L16.4926 5.57662C16.4926 5.57662 17.4 5.11519 17.4 5.879Z" fill="white"/>
<path d="M9.78417 16.2183C9.78417 16.2183 9.64396 16.2052 9.46924 15.652C9.29462 15.0989 8.40674 12.1878 8.40674 12.1878L15.4661 7.70471C15.4661 7.70471 15.8738 7.45725 15.8592 7.70471C15.8592 7.70471 15.9319 7.74832 15.7136 7.95208C15.4953 8.15593 10.1679 12.9447 10.1679 12.9447" fill="#D2E5F1"/>
<path d="M11.4971 15.3061L9.59714 17.0384C9.59714 17.0384 9.44865 17.1511 9.28613 17.0804L9.64995 13.8628" fill="#B5CFE4"/>
</svg>
