<svg width="15" height="15" viewBox="0 0 15 15" fill="none" xmlns="http://www.w3.org/2000/svg">
<rect width="15" height="15" rx="7.5" fill="#59BDFF"/>
<path d="M11.3425 5.54934C11.2452 5.85796 11.1139 6.12659 10.9494 6.3705L10.9563 6.3596C10.7947 6.63101 10.6018 6.9446 10.3775 7.30035C10.1851 7.58122 10.0833 7.72662 10.072 7.73656C10.0222 7.79944 9.98763 7.8765 9.97573 7.9612L9.97537 7.96375C9.9851 8.04081 10.0204 8.10806 10.072 8.15822L10.2163 8.32034C10.988 9.11981 11.4221 9.67089 11.5185 9.97357C11.5312 10.007 11.5384 10.0455 11.5384 10.0859C11.5384 10.1564 11.516 10.2215 11.4781 10.2749L11.4789 10.2738C11.4154 10.3396 11.3267 10.3803 11.2286 10.3803C11.2178 10.3803 11.2066 10.38 11.1961 10.3789H11.1976H10.2487C10.2484 10.3789 10.2476 10.3789 10.2469 10.3789C10.1254 10.3789 10.0136 10.336 9.92596 10.2647L9.92704 10.2655C9.79938 10.1597 9.68577 10.0452 9.58407 9.92086L9.58083 9.9165C9.4147 9.72723 9.26732 9.56789 9.13869 9.43849C8.71025 9.02797 8.39409 8.82271 8.19021 8.82271C8.18264 8.82198 8.17398 8.82162 8.16497 8.82162C8.10546 8.82162 8.04993 8.84016 8.00412 8.87178L8.00521 8.87105C7.9677 8.91831 7.94498 8.97938 7.94498 9.04517C7.94498 9.05826 7.9457 9.07062 7.9475 9.08334V9.08189C7.93777 9.19603 7.932 9.32871 7.932 9.46284C7.932 9.5061 7.93272 9.54899 7.9338 9.59189V9.58571V10.007C7.93741 10.0241 7.93957 10.0437 7.93957 10.0637C7.93957 10.1517 7.8999 10.2302 7.83787 10.2822L7.83751 10.2825C7.69794 10.3469 7.53494 10.3847 7.36291 10.3847C7.32613 10.3847 7.29006 10.3829 7.25436 10.3796L7.25905 10.38C6.69141 10.3691 6.16488 10.2015 5.71733 9.91904L5.72995 9.92631C5.18502 9.59261 4.73351 9.15822 4.38946 8.64495L4.37972 8.62969C4.05299 8.19275 3.74825 7.69911 3.48859 7.17857L3.46334 7.1226C3.31152 6.83106 3.15428 6.47265 3.01868 6.10405L2.99704 6.03681C2.94186 5.87105 2.90183 5.67839 2.88524 5.47882L2.88452 5.46974C2.88452 5.28605 2.99175 5.1942 3.20621 5.1942H4.15469C4.16334 5.19347 4.17344 5.19311 4.1839 5.19311C4.27333 5.19311 4.35592 5.22401 4.4212 5.27599L4.42047 5.27526C4.4926 5.35487 4.54598 5.45265 4.5723 5.5617L4.57338 5.56607C4.74793 6.06298 4.93294 6.48028 5.14572 6.88014L5.12155 6.83034C5.29538 7.18294 5.4876 7.48646 5.70687 7.76673L5.69857 7.75546C5.89091 7.99343 6.04094 8.11242 6.14865 8.11242C6.15189 8.11278 6.15586 8.11278 6.16019 8.11278C6.21356 8.11278 6.26008 8.0837 6.28533 8.04008L6.28569 8.03935C6.31238 7.97029 6.32788 7.88995 6.32788 7.80635C6.32788 7.78854 6.32716 7.77072 6.32572 7.75328V7.75546V6.34542C6.31815 6.1793 6.27776 6.02408 6.21032 5.88486L6.2132 5.89177C6.16848 5.7958 6.11475 5.71292 6.05091 5.63913L6.052 5.64058C5.99285 5.58097 5.95246 5.50282 5.93984 5.41557L5.93948 5.41339C5.93948 5.3516 5.96761 5.29598 6.0116 5.25963L6.01197 5.25927C6.0556 5.21892 6.11403 5.19456 6.17786 5.19456H6.18074H7.67594C7.68388 5.19347 7.69289 5.19311 7.70227 5.19311C7.7726 5.19311 7.83571 5.2251 7.87754 5.27526L7.8779 5.27563C7.91505 5.34396 7.93705 5.42575 7.93705 5.51227C7.93705 5.52608 7.93632 5.53953 7.93524 5.55298V5.55116V7.43157C7.93452 7.4403 7.93416 7.45048 7.93416 7.46065C7.93416 7.52754 7.95255 7.59043 7.98429 7.64386L7.98357 7.64241C8.00989 7.68167 8.05389 7.70711 8.10366 7.70711C8.16713 7.70275 8.22519 7.68167 8.27388 7.64822L8.2728 7.64895C8.37089 7.58098 8.45528 7.50355 8.52849 7.41594L8.52993 7.41413C8.74884 7.16476 8.9508 6.88922 9.12679 6.59624L9.14085 6.57079C9.26491 6.3636 9.39907 6.10842 9.5206 5.84633L9.54296 5.79289L9.70381 5.46865C9.75971 5.30652 9.90973 5.19238 10.0861 5.19238C10.0929 5.19238 10.0998 5.19238 10.1066 5.19275H10.1056H11.0544C11.3107 5.19275 11.4069 5.31161 11.3429 5.54934H11.3425Z" fill="white"/>
</svg>
