<svg width="24" height="24" viewBox="0 0 24 24" fill="none" xmlns="http://www.w3.org/2000/svg">
<path d="M11.6538 23.3077C18.0901 23.3077 23.3077 18.0901 23.3077 11.6538C23.3077 5.2176 18.0901 0 11.6538 0C5.2176 0 0 5.2176 0 11.6538C0 18.0901 5.2176 23.3077 11.6538 23.3077Z" fill="#59BDFF"/>
<path d="M13.5619 5.43848H9.74583C6.26315 5.43848 5.43848 6.26315 5.43848 9.74583V13.5619C5.43848 17.0446 6.26315 17.8692 9.74583 17.8692H13.5619C17.0446 17.8692 17.8692 17.0446 17.8692 13.5619V9.74583C17.8692 6.26315 17.0358 5.43848 13.5619 5.43848ZM15.4743 14.3075H14.5698C14.2276 14.3075 14.1224 14.0356 13.5084 13.4128C12.9732 12.8959 12.7364 12.8251 12.6039 12.8251C12.4196 12.8251 12.3669 12.8768 12.3669 13.1321V13.948C12.3669 14.1674 12.2966 14.299 11.7177 14.299C10.7615 14.299 9.70009 13.7201 8.95424 12.6408C7.83134 11.0618 7.52431 9.87737 7.52431 9.63186C7.52431 9.50031 7.576 9.37756 7.83133 9.37756H8.73586C8.96406 9.37756 9.05167 9.48274 9.13928 9.72851C9.58663 11.0181 10.3325 12.1498 10.6382 12.1498C10.7522 12.1498 10.8049 12.0981 10.8049 11.8076V10.4741C10.7698 9.86006 10.4452 9.80734 10.4452 9.58818C10.4452 9.483 10.5328 9.37756 10.6734 9.37756H12.0948C12.2878 9.37756 12.3578 9.48274 12.3578 9.71094V11.5091C12.3578 11.7022 12.4454 11.7722 12.4982 11.7722C12.6121 11.7722 12.7088 11.7019 12.9192 11.4916C13.5684 10.7635 14.0333 9.64065 14.0333 9.64065C14.0948 9.5091 14.2 9.38634 14.4282 9.38634H15.3327C15.6046 9.38634 15.6661 9.52667 15.6046 9.71973C15.4906 10.2462 14.3853 11.8076 14.3853 11.8076C14.2889 11.9655 14.2537 12.0358 14.3853 12.211C14.4817 12.3426 14.7988 12.6145 15.0081 12.8602C15.3942 13.2996 15.6924 13.6673 15.7713 13.9216C15.8604 14.1759 15.7286 14.3075 15.4743 14.3075Z" fill="white"/>
</svg>

