<svg width="51" height="51" viewBox="0 0 51 51" fill="none" xmlns="http://www.w3.org/2000/svg">
<path d="M36.6569 14.3438H25.5006C25.0779 14.3438 24.6726 14.1758 24.3737 13.877C24.0748 13.5781 23.9069 13.1727 23.9069 12.75C23.9069 12.3273 24.0748 11.9219 24.3737 11.623C24.6726 11.3242 25.0779 11.1562 25.5006 11.1562H35.0631V4.78125H25.5006C25.0779 4.78125 24.6726 4.61334 24.3737 4.31445C24.0748 4.01557 23.9069 3.61019 23.9069 3.1875C23.9069 2.76481 24.0748 2.35943 24.3737 2.06055C24.6726 1.76166 25.0779 1.59375 25.5006 1.59375H36.6569C37.0796 1.59375 37.485 1.76166 37.7838 2.06055C38.0827 2.35943 38.2506 2.76481 38.2506 3.1875V12.75C38.2506 13.1727 38.0827 13.5781 37.7838 13.877C37.485 14.1758 37.0796 14.3438 36.6569 14.3438Z" fill="#77ACF1"/>
<path d="M46.2194 19.125H33.4694C33.0467 19.125 32.6413 18.9571 32.3424 18.6582C32.0435 18.3593 31.8756 17.9539 31.8756 17.5312V12.75C31.8756 12.3273 32.0435 11.9219 32.3424 11.623C32.6413 11.3242 33.0467 11.1562 33.4694 11.1562C33.8921 11.1562 34.2974 11.3242 34.5963 11.623C34.8952 11.9219 35.0631 12.3273 35.0631 12.75V15.9375H44.0089L43.1132 13.2536C43.0043 12.9267 43.0043 12.5733 43.1132 12.2464L44.0089 9.5625H36.6569C36.2342 9.5625 35.8288 9.39459 35.5299 9.0957C35.231 8.79681 35.0631 8.39144 35.0631 7.96875C35.0631 7.54606 35.231 7.14069 35.5299 6.8418C35.8288 6.54291 36.2342 6.375 36.6569 6.375H46.2194C46.4719 6.37494 46.7208 6.43489 46.9457 6.54991C47.1705 6.66493 47.3648 6.83173 47.5125 7.03656C47.6602 7.24139 47.7571 7.47838 47.7952 7.72802C47.8334 7.97766 47.8117 8.23278 47.7319 8.47237L46.3054 12.75L47.7398 17.0276C47.8198 17.2679 47.8415 17.5237 47.8029 17.774C47.7644 18.0242 47.6667 18.2617 47.5181 18.4667C47.3695 18.6717 47.1742 18.8383 46.9483 18.9528C46.7225 19.0673 46.4726 19.1263 46.2194 19.125Z" fill="#77ACF1"/>
<path d="M49.4069 50.9999H20.7194C20.2967 50.9999 19.8913 50.832 19.5924 50.5331C19.2935 50.2342 19.1256 49.8288 19.1256 49.4061C19.1256 48.9834 19.2935 48.5781 19.5924 48.2792C19.8913 47.9803 20.2967 47.8124 20.7194 47.8124H46.119L25.5006 21.6972L4.88229 47.8124H14.3444C14.7671 47.8124 15.1725 47.9803 15.4713 48.2792C15.7702 48.5781 15.9381 48.9834 15.9381 49.4061C15.9381 49.8288 15.7702 50.2342 15.4713 50.5331C15.1725 50.832 14.7671 50.9999 14.3444 50.9999H1.59439C1.29493 51 1.00151 50.9158 0.747732 50.7568C0.493955 50.5978 0.290095 50.3706 0.159514 50.1011C0.0289331 49.8316 -0.0230863 49.5308 0.00941735 49.2331C0.041921 48.9355 0.157632 48.653 0.343292 48.418L24.2495 18.1368C24.4047 17.957 24.5968 17.8128 24.8126 17.714C25.0285 17.6151 25.2632 17.564 25.5006 17.564C25.7381 17.564 25.9727 17.6151 26.1886 17.714C26.4045 17.8128 26.5966 17.957 26.7517 18.1368L50.658 48.418C50.8436 48.653 50.9594 48.9355 50.9919 49.2331C51.0244 49.5308 50.9723 49.8316 50.8418 50.1011C50.7112 50.3706 50.5073 50.5978 50.2535 50.7568C49.9998 50.9158 49.7063 51 49.4069 50.9999Z" fill="#04009A"/>
<path d="M25.5006 20.7188C25.0779 20.7188 24.6726 20.5508 24.3737 20.252C24.0748 19.9531 23.9069 19.5477 23.9069 19.125V1.59375C23.9069 1.17106 24.0748 0.765685 24.3737 0.466799C24.6726 0.167912 25.0779 0 25.5006 0C25.9233 0 26.3287 0.167912 26.6276 0.466799C26.9265 0.765685 27.0944 1.17106 27.0944 1.59375V19.125C27.0944 19.5477 26.9265 19.9531 26.6276 20.252C26.3287 20.5508 25.9233 20.7188 25.5006 20.7188Z" fill="#04009A"/>
<path d="M25.5006 32.5875C22.5057 32.5869 19.5672 31.7721 16.9996 30.2304C16.8151 30.1253 16.6535 29.9845 16.5242 29.8161C16.3949 29.6477 16.3005 29.4552 16.2467 29.2499C16.1928 29.0445 16.1805 28.8305 16.2105 28.6204C16.2405 28.4102 16.3121 28.2081 16.4213 28.0261C16.5304 27.844 16.6748 27.6855 16.8461 27.56C17.0173 27.4345 17.2118 27.3445 17.4183 27.2952C17.6248 27.246 17.8391 27.2384 18.0485 27.2731C18.2579 27.3078 18.4583 27.3839 18.6379 27.4971C20.7105 28.7422 23.0828 29.3999 25.5006 29.3999C27.9185 29.3999 30.2907 28.7422 32.3633 27.4971C32.5429 27.3839 32.7433 27.3078 32.9528 27.2731C33.1622 27.2384 33.3764 27.246 33.5829 27.2952C33.7894 27.3445 33.984 27.4345 34.1552 27.56C34.3264 27.6855 34.4708 27.844 34.58 28.0261C34.6891 28.2081 34.7608 28.4102 34.7908 28.6204C34.8208 28.8305 34.8085 29.0445 34.7546 29.2499C34.7007 29.4552 34.6064 29.6477 34.4771 29.8161C34.3478 29.9845 34.1862 30.1253 34.0017 30.2304C31.434 31.7721 28.4956 32.5869 25.5006 32.5875Z" fill="#04009A"/>
</svg>
