<svg width="143" height="142" viewBox="0 0 143 142" fill="none" xmlns="http://www.w3.org/2000/svg">
<mask id="mask0_97_425" style="mask-type:luminance" maskUnits="userSpaceOnUse" x="14" y="13" width="115" height="115">
<path d="M55.8243 125.764C86.2009 134.468 117.882 116.899 126.587 86.5227C135.291 56.146 117.722 24.4647 87.3451 15.7604C56.9684 7.05618 25.2871 24.6252 16.5828 55.0018C7.87861 85.3785 25.4476 117.06 55.8243 125.764Z" fill="white"/>
</mask>
<g mask="url(#mask0_97_425)">
<path d="M55.8243 125.764C86.2009 134.468 117.882 116.899 126.587 86.5227C135.291 56.146 117.722 24.4647 87.3451 15.7604C56.9684 7.05618 25.2871 24.6252 16.5828 55.0018C7.87861 85.3785 25.4476 117.06 55.8243 125.764Z" fill="#316EAC"/>
<path fill-rule="evenodd" clip-rule="evenodd" d="M14.086 122.222C13.5068 122.056 13.0165 121.669 12.7212 121.144C12.426 120.619 12.3498 119.998 12.5091 119.417L14.048 113.793L8.52247 112.21C7.93898 112.043 7.4458 111.651 7.15143 111.12C6.85706 110.589 6.78562 109.963 6.95281 109.38L13.257 87.3788C13.3588 87.0235 13.5451 86.6971 13.8014 86.4301L32.5212 66.7967C32.7936 66.5105 33.1346 66.3011 33.5114 66.1864L54.8645 59.692L69.6744 36.2182C69.907 35.8496 70.24 35.5551 70.6342 35.3692C71.0284 35.1834 71.4675 35.114 71.8998 35.1692L72.2404 35.2394C72.6026 35.3432 72.9336 35.5349 73.2039 35.7974C73.4742 36.0599 73.6755 36.385 73.79 36.744L77.3153 47.7877L82.6374 51.4351C83.087 51.7437 83.4135 52.2038 83.5537 52.7321L91.5827 82.7502L102.263 79.8934C102.81 79.7462 103.392 79.8073 103.897 80.0649C104.401 80.3224 104.792 80.7582 104.993 81.2875L113.151 102.671C113.207 102.818 113.248 102.971 113.273 103.127L116.245 121.834C116.327 122.35 116.23 122.878 115.97 123.331C115.711 123.784 115.305 124.135 114.819 124.325L76.0527 139.49C75.5849 139.673 75.0709 139.697 74.588 139.559L14.086 122.222Z" fill="white"/>
<path fill-rule="evenodd" clip-rule="evenodd" d="M75.2183 137.36L14.7162 120.023L16.8533 112.216L9.15306 110.01L15.4572 88.0093L34.177 68.3758L56.3449 61.6339L71.6102 37.4395L75.3735 49.2311L81.3433 53.3224L89.9636 85.5515L102.855 82.1033L111.012 103.486L113.984 122.193L75.2183 137.36Z" fill="white"/>
<path fill-rule="evenodd" clip-rule="evenodd" d="M7.10135 121.326C6.51785 121.159 6.02467 120.767 5.7303 120.236C5.43594 119.705 5.36449 119.079 5.53169 118.495L14.9879 85.4943C15.0857 85.1525 15.2618 84.8382 15.5022 84.5762L32.8067 65.7276C33.0831 65.4262 33.4356 65.2049 33.8271 65.0867L55.1187 58.6116L69.1482 33.7988C69.4011 33.3511 69.7975 33.0015 70.2734 32.8066C70.7493 32.6117 71.2769 32.5828 71.7713 32.7244L71.8142 32.7367C72.3127 32.8899 72.744 33.2087 73.0365 33.6404C73.3291 34.0722 73.4655 34.5908 73.423 35.1106L71.995 52.5568C71.975 52.7844 71.9233 53.0064 71.8389 53.2179L67.5868 63.9031C67.5161 64.0796 67.4239 64.2467 67.3121 64.4005L59.4447 75.2401L49.9083 88.5392L48.5318 105.353C48.4988 105.75 48.3634 106.132 48.1394 106.46L40.1675 118.092L37.4327 127.636C37.2655 128.22 36.8734 128.713 36.3426 129.007C35.8118 129.302 35.1858 129.373 34.6023 129.206L7.10135 121.326ZM84.2817 113.682C83.9109 113.576 83.5626 113.375 83.2758 113.08L76.8364 106.473C76.4755 106.103 76.2506 105.621 76.1983 105.107C76.146 104.592 76.2694 104.075 76.5484 103.64L89.4528 83.5304C89.7754 83.0277 90.281 82.6714 90.8613 82.5365L102.338 79.8732C102.726 79.7846 103.131 79.7982 103.513 79.9128C103.895 80.0274 104.24 80.2391 104.516 80.5271C105.073 81.1153 105.279 81.9541 105.056 82.734L99.6971 101.435C99.5726 101.869 99.3222 102.257 98.978 102.549L86.3952 113.227C86.1076 113.472 85.7642 113.641 85.3955 113.72C85.0268 113.8 84.6441 113.787 84.2817 113.682Z" fill="#6BC8F2"/>
<path fill-rule="evenodd" clip-rule="evenodd" d="M91.3784 84.7665L78.474 104.876L84.9135 111.483L97.4963 100.804L102.855 82.1032L91.3784 84.7665ZM56.6596 60.5338L34.4917 67.2756L17.1872 86.1243L7.73095 119.125L35.2319 127.006L38.0687 117.105L46.2514 105.166L47.6794 87.7195L57.5925 73.895L65.4599 63.0554L69.7121 52.3703L71.1401 34.9241L56.6596 60.5338Z" fill="#6BC8F2"/>
<path opacity="0.2" d="M106.724 58.2146C107.636 58.4757 108.586 57.9486 108.847 57.0373C109.108 56.126 108.581 55.1756 107.67 54.9145C106.759 54.6533 105.808 55.1804 105.547 56.0917C105.286 57.003 105.813 57.9534 106.724 58.2146Z" fill="white"/>
<path opacity="0.1" d="M35.055 50.7722C35.9663 51.0333 36.9168 50.5062 37.1779 49.5949C37.439 48.6836 36.9119 47.7332 36.0006 47.4721C35.0893 47.211 34.1389 47.738 33.8778 48.6493C33.6166 49.5606 34.1437 50.5111 35.055 50.7722Z" fill="white"/>
<path opacity="0.43" d="M89.1366 36.5097C90.0479 36.7709 90.9983 36.2438 91.2594 35.3325C91.5206 34.4212 90.9935 33.4708 90.0822 33.2096C89.1709 32.9485 88.2204 33.4756 87.9593 34.3869C87.6982 35.2982 88.2253 36.2486 89.1366 36.5097Z" fill="white"/>
</g>
</svg>
