<svg width="23" height="31" viewBox="0 0 23 31" fill="none" xmlns="http://www.w3.org/2000/svg">
<path d="M13 22C17.9706 22 22 17.9706 22 13C22 8.02943 17.9706 4 13 4C8.02943 4 4 8.02943 4 13C4 17.9706 8.02943 22 13 22Z" stroke="#2B2B2B" stroke-width="1.52344" stroke-linecap="round" stroke-linejoin="round"/>
<path d="M13 4C10.4415 5.86479 8.73645 9.19772 8.73645 12.9991C8.73645 16.8005 10.4415 20.1352 13.0027 22C15.5638 20.1352 17.2689 16.8023 17.2689 12.9991C17.2689 9.19593 15.5612 5.86479 13 4Z" stroke="#2B2B2B" stroke-width="1.52344" stroke-linecap="round" stroke-linejoin="round"/>
<path d="M13 29.7167V25C9.8174 25 6.76515 23.7357 4.51472 21.4853C2.26428 19.2348 1 16.1826 1 13C1 9.81739 2.26428 6.76515 4.51472 4.51472C6.76515 2.26428 9.8174 1 13 1V4" stroke="#2B2B2B" stroke-width="1.52344" stroke-linecap="round" stroke-linejoin="round"/>
<path d="M16.7502 29.7167H9.24976" stroke="#2B2B2B" stroke-width="1.52344" stroke-linecap="round" stroke-linejoin="round"/>
<path d="M22 13H4" stroke="#2B2B2B" stroke-width="1.52344" stroke-linecap="round" stroke-linejoin="round"/>
</svg>
