<svg width="55" height="55" viewBox="0 0 55 55" fill="none" xmlns="http://www.w3.org/2000/svg">
<mask id="mask0_106_34" style="mask-type:luminance" maskUnits="userSpaceOnUse" x="5" y="5" width="45" height="45">
<path d="M21.3749 48.8749C33.1799 52.2577 45.4921 45.4301 48.8749 33.6251C52.2577 21.8201 45.4302 9.50792 33.6251 6.12511C21.8201 2.74231 9.50794 9.56986 6.12513 21.3749C2.74232 33.1799 9.56988 45.4921 21.3749 48.8749Z" fill="white"/>
</mask>
<g mask="url(#mask0_106_34)">
<path d="M21.3749 48.8749C33.1799 52.2577 45.4921 45.4301 48.8749 33.6251C52.2577 21.8201 45.4302 9.50792 33.6251 6.12511C21.8201 2.74231 9.50794 9.56986 6.12513 21.3749C2.74232 33.1799 9.56988 45.4921 21.3749 48.8749Z" fill="#316EAC"/>
<path fill-rule="evenodd" clip-rule="evenodd" d="M5.15437 47.4982C4.9293 47.4338 4.73873 47.2831 4.62401 47.0791C4.50929 46.875 4.47966 46.6339 4.54156 46.4081L5.13964 44.2225L2.99232 43.6072C2.76556 43.5422 2.5739 43.3898 2.4595 43.1835C2.34511 42.9772 2.31734 42.7339 2.38232 42.5072L4.83237 33.9572C4.87194 33.8191 4.94436 33.6923 5.04395 33.5886L12.319 25.9586C12.4249 25.8474 12.5574 25.766 12.7038 25.7215L21.0021 23.1977L26.7577 14.0753C26.8481 13.9321 26.9775 13.8176 27.1307 13.7454C27.2839 13.6732 27.4546 13.6462 27.6226 13.6677L27.7549 13.6949C27.8957 13.7353 28.0243 13.8098 28.1293 13.9118C28.2344 14.0138 28.3126 14.1402 28.3571 14.2797L29.7271 18.5715L31.7954 19.989C31.9701 20.1089 32.0969 20.2878 32.1514 20.4931L35.2716 32.1588L39.4223 31.0487C39.6349 30.9914 39.8611 31.0152 40.0571 31.1153C40.2531 31.2154 40.405 31.3847 40.4833 31.5905L43.6532 39.9004C43.6752 39.9576 43.691 40.0172 43.7009 40.0779L44.8558 47.3479C44.8875 47.5482 44.8498 47.7534 44.749 47.9295C44.6482 48.1055 44.4902 48.2418 44.3013 48.3159L29.236 54.2093C29.0542 54.2803 28.8544 54.2896 28.6667 54.2359L5.15437 47.4982Z" fill="white"/>
<path fill-rule="evenodd" clip-rule="evenodd" d="M28.9117 53.3813L5.39937 46.6436L6.22992 43.6097L3.23744 42.7522L5.68748 34.2022L12.9625 26.5723L21.5775 23.9523L27.51 14.5499L28.9725 19.1324L31.2925 20.7224L34.6424 33.2474L39.6524 31.9074L42.8223 40.2174L43.9773 47.4874L28.9117 53.3813Z" fill="white"/>
<path fill-rule="evenodd" clip-rule="evenodd" d="M2.44014 47.15C2.21338 47.085 2.02173 46.9326 1.90733 46.7263C1.79293 46.52 1.76517 46.2767 1.83015 46.05L5.50522 33.225C5.54322 33.0922 5.61164 32.9701 5.70506 32.8683L12.4301 25.5434C12.5375 25.4262 12.6745 25.3402 12.8267 25.2943L21.1011 22.778L26.5534 13.1353C26.6517 12.9613 26.8057 12.8254 26.9907 12.7497C27.1756 12.6739 27.3807 12.6627 27.5728 12.7178L27.5894 12.7225C27.7832 12.7821 27.9508 12.906 28.0645 13.0737C28.1782 13.2415 28.2312 13.4431 28.2147 13.6451L27.6596 20.4251C27.6519 20.5135 27.6317 20.5998 27.5989 20.682L25.9464 24.8345C25.919 24.9031 25.8831 24.968 25.8397 25.0278L22.7822 29.2403L19.076 34.4086L18.541 40.9426C18.5282 41.0972 18.4756 41.2454 18.3885 41.3731L15.2904 45.8936L14.2276 49.6025C14.1626 49.8293 14.0102 50.021 13.8039 50.1354C13.5976 50.2498 13.3543 50.2775 13.1276 50.2125L2.44014 47.15ZM32.4342 44.1799C32.2901 44.1386 32.1548 44.0605 32.0433 43.9458L29.5408 41.3783C29.4006 41.2344 29.3132 41.0472 29.2929 40.8472C29.2725 40.6473 29.3205 40.4464 29.4289 40.2771L34.444 32.4622C34.5693 32.2668 34.7658 32.1284 34.9913 32.076L39.4513 31.041C39.6023 31.0066 39.7597 31.0119 39.908 31.0564C40.0564 31.1009 40.1906 31.1832 40.2977 31.2951C40.5144 31.5237 40.5945 31.8497 40.5076 32.1528L38.4251 39.4202C38.3767 39.5891 38.2794 39.7398 38.1456 39.8532L33.2556 44.0031C33.1438 44.098 33.0104 44.1638 32.8671 44.1946C32.7238 44.2255 32.5751 44.2204 32.4342 44.1799Z" fill="#6BC8F2"/>
<path fill-rule="evenodd" clip-rule="evenodd" d="M35.1925 32.9425L30.1775 40.7574L32.6799 43.3249L37.5699 39.175L39.6525 31.9075L35.1925 32.9425ZM21.7001 23.5249L13.0851 26.1448L6.36009 33.4698L2.68502 46.2947L13.3725 49.3573L14.475 45.5098L17.655 40.8698L18.21 34.0899L22.0626 28.7174L25.1201 24.5049L26.7726 20.3525L27.3276 13.5725L21.7001 23.5249Z" fill="#6BC8F2"/>
<path opacity="0.2" d="M41.1562 22.6237C41.5103 22.7252 41.8797 22.5204 41.9812 22.1662C42.0827 21.8121 41.8778 21.4427 41.5237 21.3412C41.1695 21.2397 40.8002 21.4446 40.6987 21.7987C40.5972 22.1529 40.802 22.5222 41.1562 22.6237Z" fill="white"/>
<path opacity="0.1" d="M13.3039 19.7314C13.658 19.8329 14.0274 19.628 14.1289 19.2739C14.2304 18.9197 14.0255 18.5504 13.6714 18.4489C13.3172 18.3474 12.9479 18.5522 12.8464 18.9064C12.7449 19.2605 12.9497 19.6299 13.3039 19.7314Z" fill="white"/>
<path opacity="0.43" d="M34.3212 14.1889C34.6754 14.2904 35.0447 14.0856 35.1462 13.7314C35.2477 13.3773 35.0429 13.0079 34.6887 12.9064C34.3346 12.8049 33.9652 13.0098 33.8637 13.3639C33.7622 13.7181 33.9671 14.0874 34.3212 14.1889Z" fill="white"/>
</g>
</svg>
