<svg width="23" height="23" viewBox="0 0 23 23" fill="none" xmlns="http://www.w3.org/2000/svg">
<path d="M19.862 23L19.3362 22.9969C12.1162 22.953 0.00109968 22.4888 0.00109968 19.8609C0.00109968 18.7215 1.83666 18.3808 4.37781 17.9104C5.62486 17.6804 8.22141 17.1975 8.36462 16.7208C8.24337 16.3361 6.1517 15.7915 3.63669 15.6786L3.13703 15.6577V14.6344L4.18234 14.6615C6.33568 14.7953 9.40889 15.2469 9.40889 16.725C9.40889 18.041 7.16565 18.456 4.56701 18.9379C3.33355 19.1668 1.27115 19.5484 1.03177 19.9205C1.35478 20.9345 9.73293 21.893 19.3404 21.9516H19.862V23ZM8.36358 4.32027C8.36358 6.70254 6.07853 9.93046 4.18234 13.5891C2.28615 9.93046 0.00109968 6.70359 0.00109968 4.31923C-0.011662 3.76011 0.0867594 3.20403 0.290651 2.68325C0.494543 2.16248 0.799843 1.68739 1.18883 1.28557C1.57782 0.883743 2.04275 0.563183 2.55663 0.342496C3.07051 0.12181 3.6231 0.00539164 4.18234 0C4.74157 0.00539164 5.29417 0.12181 5.80805 0.342496C6.32193 0.563183 6.78686 0.883743 7.17584 1.28557C7.56483 1.68739 7.87013 2.16248 8.07403 2.68325C8.27792 3.20403 8.37634 3.76116 8.36358 4.32027ZM4.77294 10.3329C6.08167 8.00709 7.31827 5.81403 7.31827 4.31923C7.33179 3.89722 7.26093 3.47675 7.10985 3.08247C6.95877 2.6882 6.73051 2.32805 6.43844 2.02313C6.14638 1.71821 5.79638 1.47466 5.40898 1.30675C5.02157 1.13885 4.60454 1.04996 4.18234 1.04531C3.76013 1.04996 3.34311 1.13885 2.9557 1.30675C2.56829 1.47466 2.2183 1.71821 1.92623 2.02313C1.63416 2.32805 1.4059 2.6882 1.25482 3.08247C1.10374 3.47675 1.03289 3.89722 1.04641 4.31923C1.04641 5.81403 2.28301 8.00918 3.59174 10.3329C3.78617 10.68 3.98477 11.0312 4.18234 11.3887C4.38095 11.0312 4.57851 10.68 4.77294 10.3329ZM6.27296 4.18125C6.27296 4.59473 6.15034 4.99894 5.92062 5.34274C5.6909 5.68654 5.36439 5.9545 4.98238 6.11273C4.60037 6.27097 4.18002 6.31237 3.77448 6.2317C3.36894 6.15103 2.99642 5.95192 2.70405 5.65954C2.41167 5.36716 2.21256 4.99465 2.13189 4.58911C2.05122 4.18357 2.09262 3.76321 2.25086 3.3812C2.40909 2.99919 2.67705 2.67268 3.02085 2.44296C3.36465 2.21324 3.76885 2.09062 4.18234 2.09062C4.7368 2.09062 5.26856 2.31089 5.66063 2.70295C6.0527 3.09502 6.27296 3.62678 6.27296 4.18125ZM5.22765 4.18125C5.22765 3.9745 5.16634 3.7724 5.05148 3.6005C4.93662 3.4286 4.77337 3.29462 4.58236 3.21551C4.39136 3.13639 4.18118 3.11569 3.97841 3.15602C3.77564 3.19636 3.58938 3.29591 3.44319 3.4421C3.297 3.58829 3.19745 3.77455 3.15711 3.97732C3.11678 4.18009 3.13748 4.39027 3.2166 4.58127C3.29571 4.77228 3.42969 4.93553 3.60159 5.05039C3.7735 5.16525 3.97559 5.22656 4.18234 5.22656C4.45957 5.22656 4.72545 5.11643 4.92148 4.9204C5.11752 4.72436 5.22765 4.45848 5.22765 4.18125ZM22.9979 11.6364C22.9979 14.0208 20.7129 17.2476 18.8167 20.9062C16.9205 17.2476 14.6354 14.0208 14.6354 11.6364C14.6177 11.0762 14.7128 10.5181 14.9149 9.99537C15.1171 9.4726 15.4222 8.99578 15.8122 8.59324C16.2022 8.19069 16.6692 7.87063 17.1853 7.65205C17.7014 7.43347 18.2562 7.32084 18.8167 7.32084C19.3772 7.32084 19.9319 7.43347 20.4481 7.65205C20.9642 7.87063 21.4311 8.19069 21.8211 8.59324C22.2111 8.99578 22.5163 9.4726 22.7184 9.99537C22.9206 10.5181 23.0156 11.0762 22.9979 11.6364ZM19.4073 17.6501C20.716 15.3243 21.9526 13.1312 21.9526 11.6364C21.9715 11.2128 21.9045 10.7897 21.7554 10.3928C21.6064 9.99577 21.3784 9.63311 21.0854 9.32664C20.7923 9.02017 20.4402 8.77626 20.0503 8.60962C19.6604 8.44298 19.2407 8.35706 18.8167 8.35706C18.3926 8.35706 17.973 8.44298 17.5831 8.60962C17.1931 8.77626 16.841 9.02017 16.548 9.32664C16.2549 9.63311 16.027 9.99577 15.8779 10.3928C15.7289 10.7897 15.6618 11.2128 15.6807 11.6364C15.6807 13.1312 16.9173 15.3264 18.2261 17.6501C18.4205 17.9971 18.6191 18.3484 18.8167 18.7059C19.0153 18.3484 19.2128 17.9971 19.4073 17.6501ZM20.9073 11.4984C20.9073 11.9119 20.7847 12.3161 20.555 12.6599C20.3252 13.0037 19.9987 13.2717 19.6167 13.4299C19.2347 13.5882 18.8144 13.6296 18.4088 13.5489C18.0033 13.4682 17.6308 13.2691 17.3384 12.9767C17.046 12.6843 16.8469 12.3118 16.7662 11.9063C16.6856 11.5008 16.727 11.0804 16.8852 10.6984C17.0434 10.3164 17.3114 9.98986 17.6552 9.76014C17.999 9.53042 18.4032 9.40781 18.8167 9.40781C19.3711 9.40781 19.9029 9.62807 20.295 10.0201C20.687 10.4122 20.9073 10.944 20.9073 11.4984ZM19.862 11.4984C19.862 11.2917 19.8007 11.0896 19.6858 10.9177C19.571 10.7458 19.4077 10.6118 19.2167 10.5327C19.0257 10.4536 18.8155 10.4329 18.6127 10.4732C18.41 10.5135 18.2237 10.6131 18.0775 10.7593C17.9313 10.9055 17.8318 11.0917 17.7914 11.2945C17.7511 11.4973 17.7718 11.7075 17.8509 11.8985C17.93 12.0895 18.064 12.2527 18.2359 12.3676C18.4078 12.4824 18.6099 12.5437 18.8167 12.5437C19.0939 12.5437 19.3598 12.4336 19.5558 12.2376C19.7519 12.0415 19.862 11.7757 19.862 11.4984Z" fill="black"/>
</svg>
